%
M48
M72
T01C0.0236
T02C0.0320
T03C0.0400
T04C0.0433
T05C0.0440
T06C0.0551
T07C0.1378
T08C0.1600
%
T01
X1650Y4650
X2650Y4650
X2650Y5650
X2650Y6650
X1650Y6650
X1650Y5650
X1650Y7650
X1650Y8650
X3650Y6650
X3650Y5650
X3650Y4650
X4650Y4650
X4650Y5650
X4650Y6650
X4650Y7650
X4650Y8650
X5525Y6525
X7025Y4525
X7025Y4150
X8650Y6900
X8275Y7275
X10900Y5275
X4900Y11275
X5525Y14025
X4400Y15775
X7900Y14400
X11900Y18150
X13150Y14775
X8275Y22275
X7025Y21900
X6025Y21525
X3900Y20275
X1900Y24900
X6650Y29025
X7025Y30775
X8650Y29400
X8650Y28400
X8650Y27400
X8650Y26400
X11900Y25900
X13400Y25400
X13150Y23400
X13400Y29775
X13400Y38400
X13025Y39400
X11900Y40650
X13400Y44400
X11900Y48150
X13025Y51900
X8275Y52275
X7775Y51275
X8025Y44775
X7150Y44025
X7775Y40400
X7775Y37775
X6775Y37025
X7525Y36400
X6900Y35400
X7525Y34400
X7525Y33400
X2400Y32775
X2400Y35900
X2400Y43275
X1650Y52150
X2400Y53775
X5400Y59525
X5025Y61400
X3775Y61900
X2150Y63650
X2775Y64900
X3150Y65275
X5025Y64525
X5650Y65650
X6025Y66025
X6400Y66400
X6775Y66775
X7150Y67150
X8025Y66775
X8400Y66400
X8025Y66025
X8400Y65650
X8025Y65275
X8400Y64900
X9400Y62775
X9150Y62525
X8150Y61150
X8650Y59900
X8275Y58900
X11650Y61150
X15150Y63400
X15775Y64025
X16150Y64025
X15150Y69150
X17275Y72650
X15150Y74150
X12150Y69150
X8400Y67150
X2150Y69150
X18400Y69150
X25650Y78150
X26650Y69900
X29150Y68525
X30650Y65275
X30150Y65025
X29650Y64775
X29150Y64525
X28650Y64275
X34650Y72150
X34400Y75150
X31900Y78150
X31900Y79400
X38525Y78275
X42150Y74150
X41150Y72150
X39150Y71650
X40650Y66650
X42525Y65775
X43400Y71150
X43400Y72150
X45025Y71650
X43150Y78150
X46025Y56775
X46025Y49275
X46025Y41775
X46025Y34275
X46025Y26775
X46025Y19275
X33525Y1775
X25525Y1150
X19650Y10650
X19650Y18150
X19650Y25650
X19650Y33150
X19650Y40650
X19650Y48150
X19650Y55650
X18025Y1275
T02
X19150Y3275
X20150Y3275
X20150Y4275
X21150Y4275
X21150Y3275
X22150Y3275
X22150Y4275
X23150Y4275
X23150Y3275
X24150Y3275
X24150Y4275
X25150Y4275
X25150Y3275
X26150Y3275
X26150Y4275
X27150Y4275
X27150Y3275
X28150Y3275
X28150Y4275
X29150Y4275
X29150Y3275
X30150Y3275
X30150Y4275
X31150Y4275
X31150Y3275
X32150Y3275
X32150Y4275
X33150Y4275
X33150Y3275
X34150Y3275
X34150Y4275
X35150Y4275
X35150Y3275
X36150Y3275
X36150Y4275
X37150Y4275
X37150Y3275
X38150Y3275
X38150Y4275
X39150Y4275
X39150Y3275
X40150Y3275
X40150Y4275
X41150Y4275
X41150Y3275
X42150Y3275
X42150Y4275
X43150Y4275
X43150Y3275
X44150Y3275
X44150Y4275
X45150Y4275
X45150Y3275
X46150Y3275
X46150Y4275
X47150Y4275
X47150Y3275
X30150Y2025
X29150Y2025
X21150Y2025
X20150Y2025
X17150Y4400
X16150Y4400
X15400Y4400
X15150Y3275
X14400Y4400
X16150Y9150
X16150Y10150
X16150Y11150
X15150Y10150
X15150Y12150
X16150Y12150
X18150Y11150
X17150Y9150
X17150Y16650
X16150Y16650
X16150Y17650
X15150Y17650
X16150Y18650
X16150Y19650
X15150Y19650
X18150Y18650
X17150Y24150
X16150Y24150
X16150Y25150
X16150Y26150
X16150Y27150
X15150Y27150
X15150Y25150
X18150Y26150
X17150Y31650
X16150Y31650
X16150Y32650
X16150Y33650
X15150Y32650
X15150Y34650
X16150Y34650
X18150Y33650
X17150Y39150
X16150Y39150
X16150Y40150
X16150Y41150
X16150Y42150
X15150Y42150
X15150Y40150
X18150Y41150
X17150Y46650
X16150Y46650
X16150Y47650
X16150Y48650
X16150Y49650
X15150Y49650
X15150Y47650
X18150Y48650
X17150Y54150
X16150Y54150
X16150Y55150
X16150Y56150
X15150Y55150
X15150Y57150
X16150Y57150
X18150Y56150
X16650Y61775
X15650Y61775
X14900Y61775
X13900Y61775
X19150Y62025
X19150Y63025
X20150Y63025
X20150Y62025
X21150Y62025
X21150Y63025
X22150Y63025
X22150Y62025
X23150Y62025
X23150Y63025
X24150Y63025
X24150Y62025
X25150Y62025
X25150Y63025
X26150Y63025
X26150Y62025
X27150Y62025
X27150Y63025
X28150Y63025
X28150Y62025
X29150Y62025
X29150Y63025
X30150Y63025
X30150Y62025
X31150Y62025
X31150Y63025
X32150Y63025
X32150Y62025
X33150Y62025
X33150Y63025
X34150Y63025
X34150Y62025
X35150Y62025
X35150Y63025
X36150Y63025
X36150Y62025
X37150Y62025
X37150Y63025
X38150Y63025
X38150Y62025
X39150Y62025
X39150Y63025
X40150Y63025
X40150Y62025
X41150Y62025
X41150Y63025
X42150Y63025
X42150Y62025
X43150Y62025
X43150Y63025
X44150Y63025
X44150Y62025
X45150Y62025
X45150Y63025
X46150Y63025
X46150Y62025
X46525Y64650
X48150Y64650
X48150Y65650
X48150Y68150
X48150Y69150
X46525Y68150
X45025Y69400
X44525Y70150
X44025Y69400
X42650Y69400
X42150Y70150
X41650Y69400
X40650Y69650
X39150Y69150
X39150Y70150
X38150Y70150
X38150Y69150
X37150Y69150
X37150Y70150
X37150Y71150
X36150Y71150
X36150Y70150
X36150Y69150
X35150Y69150
X35150Y70150
X35150Y71150
X34150Y71150
X34150Y70150
X34150Y69150
X33150Y69150
X33150Y70150
X33150Y71150
X32150Y71150
X32150Y70150
X32150Y69150
X31150Y69150
X31150Y70150
X31150Y71150
X30150Y70150
X30150Y69150
X29150Y70150
X28150Y69150
X28025Y70650
X27150Y69150
X26150Y69150
X25150Y69150
X24150Y69150
X23150Y69150
X22150Y69150
X21150Y69150
X20150Y69150
X19150Y69150
X21150Y66150
X22150Y66150
X23150Y66150
X24150Y66150
X25150Y66150
X26150Y66150
X27150Y66150
X28150Y66150
X27650Y64275
X26650Y64275
X25150Y64275
X21150Y64275
X20150Y64525
X20150Y65525
X28025Y74650
X30150Y76150
X30150Y77150
X31150Y74150
X32150Y74150
X33150Y74150
X34150Y74150
X35150Y74150
X36150Y74150
X37150Y74150
X38150Y74150
X39150Y76650
X39150Y77650
X40650Y78650
X41650Y78650
X42650Y78650
X43650Y78650
X45150Y78650
X45150Y77650
X45150Y76650
X45150Y75650
X43650Y75650
X42650Y75650
X41650Y75650
X40650Y75650
X40150Y73650
X41150Y73650
X42150Y72150
X42150Y71150
X42525Y68150
X44025Y65900
X44525Y66650
X45025Y65900
X42525Y64650
X40650Y65650
X39150Y66150
X38150Y66150
X37150Y66150
X36150Y66150
X35150Y66150
X34150Y66150
X33150Y66150
X32150Y66150
X31150Y66150
X30150Y66150
X34150Y76150
X34150Y77150
X38150Y71150
X46150Y71150
X46150Y72150
X5400Y60900
X4400Y60900
X4400Y59900
X4400Y58900
X4400Y57900
X4400Y56900
X4400Y55900
X5400Y56900
X4400Y53400
X4400Y52400
X4400Y51400
X4400Y50400
X4400Y49400
X4400Y48400
X4400Y47400
X4400Y46400
X4400Y45400
X5400Y46400
X4400Y43400
X4400Y42400
X4400Y41400
X4400Y40400
X4400Y39400
X5400Y39400
X5400Y40400
X5400Y41400
X5400Y38400
X5400Y37400
X5400Y36400
X5400Y35400
X4400Y35400
X4400Y36400
X4400Y37400
X4400Y38400
X5400Y34400
X5400Y33400
X4400Y32400
X4400Y31400
X4400Y30400
X4400Y29400
X4400Y28400
X4400Y27400
X5400Y27400
X5400Y28400
X5400Y29400
X5400Y30400
X5400Y26400
X5400Y25400
X5400Y24400
X5400Y23400
X4400Y24400
X4400Y25400
X4400Y26400
X5400Y22400
X1400Y24400
X1400Y25400
X1400Y26400
X1400Y27400
X1400Y28400
X1400Y29400
X1400Y30400
X1400Y35400
X1400Y36400
X1400Y37400
X1400Y38400
X1400Y39400
X1400Y40400
X1400Y41400
X1400Y45400
X1400Y46400
X1400Y47400
X1400Y48400
X1400Y49400
X1400Y50400
X1400Y51400
X1400Y55900
X1400Y56900
X1400Y57900
X1400Y58900
X1400Y59900
X1400Y60900
X1400Y61900
X4400Y61900
X4400Y62900
X4400Y63900
X5400Y50400
X6150Y3650
X6150Y2650
X8150Y2650
X8150Y1650
X10275Y1400
X10275Y3400
T03
X6150Y10150
X6150Y11150
X10775Y13150
X11400Y13150
X15150Y13445
X16150Y13445
X17150Y13445
X18150Y13445
X19150Y13445
X20150Y13445
X21150Y13445
X22150Y13445
X23150Y13445
X24150Y13445
X25150Y13445
X26150Y13445
X27150Y13445
X28150Y13445
X29150Y13445
X30150Y13445
X31150Y13445
X32150Y13445
X33150Y13445
X34150Y13445
X35150Y13445
X36150Y13445
X37150Y13445
X38150Y13445
X39150Y13445
X40150Y13445
X41150Y13445
X42150Y13445
X43150Y13445
X44150Y13445
X45150Y13445
X45150Y15355
X44150Y15355
X43150Y15355
X42150Y15355
X41150Y15355
X40150Y15355
X39150Y15355
X38150Y15355
X37150Y15355
X36150Y15355
X35150Y15355
X34150Y15355
X33150Y15355
X32150Y15355
X31150Y15355
X30150Y15355
X29150Y15355
X28150Y15355
X27150Y15355
X26150Y15355
X25150Y15355
X24150Y15355
X23150Y15355
X22150Y15355
X21150Y15355
X20150Y15355
X19150Y15355
X18150Y15355
X17150Y15355
X16150Y15355
X15150Y15355
X15150Y20945
X16150Y20945
X17150Y20945
X18150Y20945
X19150Y20945
X20150Y20945
X21150Y20945
X22150Y20945
X23150Y20945
X24150Y20945
X25150Y20945
X26150Y20945
X27150Y20945
X28150Y20945
X29150Y20945
X30150Y20945
X31150Y20945
X32150Y20945
X33150Y20945
X34150Y20945
X35150Y20945
X36150Y20945
X37150Y20945
X38150Y20945
X39150Y20945
X40150Y20945
X41150Y20945
X42150Y20945
X43150Y20945
X44150Y20945
X45150Y20945
X45150Y22855
X44150Y22855
X43150Y22855
X42150Y22855
X41150Y22855
X40150Y22855
X39150Y22855
X38150Y22855
X37150Y22855
X36150Y22855
X35150Y22855
X34150Y22855
X33150Y22855
X32150Y22855
X31150Y22855
X30150Y22855
X29150Y22855
X28150Y22855
X27150Y22855
X26150Y22855
X25150Y22855
X24150Y22855
X23150Y22855
X22150Y22855
X21150Y22855
X20150Y22855
X19150Y22855
X18150Y22855
X17150Y22855
X16150Y22855
X15150Y22855
X11400Y20650
X10775Y20650
X10775Y28150
X11400Y28150
X15150Y28445
X16150Y28445
X17150Y28445
X18150Y28445
X19150Y28445
X20150Y28445
X21150Y28445
X22150Y28445
X23150Y28445
X24150Y28445
X25150Y28445
X26150Y28445
X27150Y28445
X28150Y28445
X29150Y28445
X30150Y28445
X31150Y28445
X32150Y28445
X33150Y28445
X34150Y28445
X35150Y28445
X36150Y28445
X37150Y28445
X38150Y28445
X39150Y28445
X40150Y28445
X41150Y28445
X42150Y28445
X43150Y28445
X44150Y28445
X45150Y28445
X45150Y30355
X44150Y30355
X43150Y30355
X42150Y30355
X41150Y30355
X40150Y30355
X39150Y30355
X38150Y30355
X37150Y30355
X36150Y30355
X35150Y30355
X34150Y30355
X33150Y30355
X32150Y30355
X31150Y30355
X30150Y30355
X29150Y30355
X28150Y30355
X27150Y30355
X26150Y30355
X25150Y30355
X24150Y30355
X23150Y30355
X22150Y30355
X21150Y30355
X20150Y30355
X19150Y30355
X18150Y30355
X17150Y30355
X16150Y30355
X15150Y30355
X15150Y35945
X16150Y35945
X17150Y35945
X18150Y35945
X19150Y35945
X20150Y35945
X21150Y35945
X22150Y35945
X23150Y35945
X24150Y35945
X25150Y35945
X26150Y35945
X27150Y35945
X28150Y35945
X29150Y35945
X30150Y35945
X31150Y35945
X32150Y35945
X33150Y35945
X34150Y35945
X35150Y35945
X36150Y35945
X37150Y35945
X38150Y35945
X39150Y35945
X40150Y35945
X41150Y35945
X42150Y35945
X43150Y35945
X44150Y35945
X45150Y35945
X45150Y37855
X44150Y37855
X43150Y37855
X42150Y37855
X41150Y37855
X40150Y37855
X39150Y37855
X38150Y37855
X37150Y37855
X36150Y37855
X35150Y37855
X34150Y37855
X33150Y37855
X32150Y37855
X31150Y37855
X30150Y37855
X29150Y37855
X28150Y37855
X27150Y37855
X26150Y37855
X25150Y37855
X24150Y37855
X23150Y37855
X22150Y37855
X21150Y37855
X20150Y37855
X19150Y37855
X18150Y37855
X17150Y37855
X16150Y37855
X15150Y37855
X11400Y35650
X10775Y35650
X10775Y43150
X11400Y43150
X15150Y43445
X16150Y43445
X17150Y43445
X18150Y43445
X19150Y43445
X20150Y43445
X21150Y43445
X22150Y43445
X23150Y43445
X24150Y43445
X25150Y43445
X26150Y43445
X27150Y43445
X28150Y43445
X29150Y43445
X30150Y43445
X31150Y43445
X32150Y43445
X33150Y43445
X34150Y43445
X35150Y43445
X36150Y43445
X37150Y43445
X38150Y43445
X39150Y43445
X40150Y43445
X41150Y43445
X42150Y43445
X43150Y43445
X44150Y43445
X45150Y43445
X45150Y45355
X44150Y45355
X43150Y45355
X42150Y45355
X41150Y45355
X40150Y45355
X39150Y45355
X38150Y45355
X37150Y45355
X36150Y45355
X35150Y45355
X34150Y45355
X33150Y45355
X32150Y45355
X31150Y45355
X30150Y45355
X29150Y45355
X28150Y45355
X27150Y45355
X26150Y45355
X25150Y45355
X24150Y45355
X23150Y45355
X22150Y45355
X21150Y45355
X20150Y45355
X19150Y45355
X18150Y45355
X17150Y45355
X16150Y45355
X15150Y45355
X15150Y50945
X16150Y50945
X17150Y50945
X18150Y50945
X19150Y50945
X20150Y50945
X21150Y50945
X22150Y50945
X23150Y50945
X24150Y50945
X25150Y50945
X26150Y50945
X27150Y50945
X28150Y50945
X29150Y50945
X30150Y50945
X31150Y50945
X32150Y50945
X33150Y50945
X34150Y50945
X35150Y50945
X36150Y50945
X37150Y50945
X38150Y50945
X39150Y50945
X40150Y50945
X41150Y50945
X42150Y50945
X43150Y50945
X44150Y50945
X45150Y50945
X45150Y52855
X44150Y52855
X43150Y52855
X42150Y52855
X41150Y52855
X40150Y52855
X39150Y52855
X38150Y52855
X37150Y52855
X36150Y52855
X35150Y52855
X34150Y52855
X33150Y52855
X32150Y52855
X31150Y52855
X30150Y52855
X29150Y52855
X28150Y52855
X27150Y52855
X26150Y52855
X25150Y52855
X24150Y52855
X23150Y52855
X22150Y52855
X21150Y52855
X20150Y52855
X19150Y52855
X18150Y52855
X17150Y52855
X16150Y52855
X15150Y52855
X11400Y50650
X10775Y50650
X10775Y58150
X11400Y58150
X15150Y58445
X16150Y58445
X17150Y58445
X18150Y58445
X19150Y58445
X20150Y58445
X21150Y58445
X22150Y58445
X23150Y58445
X24150Y58445
X25150Y58445
X26150Y58445
X27150Y58445
X28150Y58445
X29150Y58445
X30150Y58445
X31150Y58445
X32150Y58445
X33150Y58445
X34150Y58445
X35150Y58445
X36150Y58445
X37150Y58445
X38150Y58445
X39150Y58445
X40150Y58445
X41150Y58445
X42150Y58445
X43150Y58445
X44150Y58445
X45150Y58445
X45150Y60355
X44150Y60355
X43150Y60355
X42150Y60355
X41150Y60355
X40150Y60355
X39150Y60355
X38150Y60355
X37150Y60355
X36150Y60355
X35150Y60355
X34150Y60355
X33150Y60355
X32150Y60355
X31150Y60355
X30150Y60355
X29150Y60355
X28150Y60355
X27150Y60355
X26150Y60355
X25150Y60355
X24150Y60355
X23150Y60355
X22150Y60355
X21150Y60355
X20150Y60355
X19150Y60355
X18150Y60355
X17150Y60355
X16150Y60355
X15150Y60355
X19150Y64150
X19150Y65150
X19150Y66150
X19900Y71650
X19900Y73650
X23650Y73650
X24275Y73650
X24900Y73650
X24900Y71650
X27275Y76150
X27275Y78150
X29150Y73150
X29150Y72150
X36150Y76150
X36150Y77150
X36150Y78150
X37150Y78150
X37150Y77150
X37150Y76150
X40150Y64650
X41150Y64650
X47150Y71650
X48150Y71650
X12650Y71650
X12025Y71650
X11400Y71650
X9150Y71650
X9150Y73650
X4150Y73650
X4150Y71650
X15150Y7855
X16150Y7855
X17150Y7855
X18150Y7855
X19150Y7855
X20150Y7855
X21150Y7855
X22150Y7855
X23150Y7855
X24150Y7855
X25150Y7855
X26150Y7855
X27150Y7855
X28150Y7855
X29150Y7855
X30150Y7855
X31150Y7855
X32150Y7855
X33150Y7855
X34150Y7855
X35150Y7855
X36150Y7855
X37150Y7855
X38150Y7855
X39150Y7855
X40150Y7855
X41150Y7855
X42150Y7855
X43150Y7855
X44150Y7855
X45150Y7855
X45150Y5945
X44150Y5945
X43150Y5945
X42150Y5945
X41150Y5945
X40150Y5945
X39150Y5945
X38150Y5945
X37150Y5945
X36150Y5945
X35150Y5945
X34150Y5945
X33150Y5945
X32150Y5945
X31150Y5945
X30150Y5945
X29150Y5945
X28150Y5945
X27150Y5945
X26150Y5945
X25150Y5945
X24150Y5945
X23150Y5945
X22150Y5945
X21150Y5945
X20150Y5945
X19150Y5945
X18150Y5945
X17150Y5945
X16150Y5945
X15150Y5945
X16150Y2275
X17150Y2275
X18150Y2275
T04
X6150Y4650
X6150Y7650
X44150Y73900
X45150Y73900
X46150Y73900
X48150Y73900
T05
X2150Y2150
X3150Y2150
X4150Y2150
T06
X5431Y76067
X7084Y76067
X8738Y76067
X10391Y76067
X12045Y76067
X13698Y76067
X15352Y76067
X17005Y76067
X18659Y76067
X20312Y76067
X21966Y76067
X23619Y76067
X23619Y78233
X21966Y78233
X20312Y78233
X18659Y78233
X17005Y78233
X15352Y78233
X13698Y78233
X12045Y78233
X10391Y78233
X8738Y78233
X7084Y78233
X5431Y78233
T07
X3150Y8050
T08
X12150Y10650
X12150Y33150
X12150Y55650
X2150Y78150
X48150Y78150
X48150Y55650
X48150Y33150
X48150Y10650
M30
