G75*
G70*
%OFA0B0*%
%FSLAX24Y24*%
%IPPOS*%
%LPD*%
%AMOC8*
5,1,8,0,0,1.08239X$1,22.5*
%
%ADD10C,0.1080*%
%ADD11C,0.0600*%
%ADD12C,0.0680*%
%ADD13C,0.0710*%
%ADD14C,0.0940*%
%ADD15C,0.0740*%
%ADD16C,0.1458*%
%ADD17C,0.0749*%
%ADD18C,0.0730*%
%ADD19C,0.0476*%
%ADD20C,0.2580*%
D10*
X005431Y076067D03*
X007084Y076067D03*
X008738Y076067D03*
X010391Y076067D03*
X012045Y076067D03*
X013698Y076067D03*
X015352Y076067D03*
X017005Y076067D03*
X018659Y076067D03*
X020312Y076067D03*
X021966Y076067D03*
X023619Y076067D03*
X023619Y078233D03*
X021966Y078233D03*
X020312Y078233D03*
X018659Y078233D03*
X017005Y078233D03*
X015352Y078233D03*
X013698Y078233D03*
X012045Y078233D03*
X010391Y078233D03*
X008738Y078233D03*
X007084Y078233D03*
X005431Y078233D03*
D11*
X004400Y063900D03*
X004400Y062900D03*
X004400Y061900D03*
X004400Y060900D03*
X004400Y059900D03*
X004400Y058900D03*
X004400Y057900D03*
X004400Y056900D03*
X004400Y055900D03*
X005400Y056900D03*
X004400Y053400D03*
X004400Y052400D03*
X004400Y051400D03*
X004400Y050400D03*
X004400Y049400D03*
X004400Y048400D03*
X004400Y047400D03*
X004400Y046400D03*
X004400Y045400D03*
X005400Y046400D03*
X004400Y043400D03*
X004400Y042400D03*
X004400Y041400D03*
X004400Y040400D03*
X004400Y039400D03*
X005400Y039400D03*
X005400Y040400D03*
X005400Y041400D03*
X005400Y038400D03*
X005400Y037400D03*
X005400Y036400D03*
X005400Y035400D03*
X004400Y035400D03*
X004400Y036400D03*
X004400Y037400D03*
X004400Y038400D03*
X005400Y034400D03*
X005400Y033400D03*
X004400Y032400D03*
X004400Y031400D03*
X004400Y030400D03*
X004400Y029400D03*
X004400Y028400D03*
X004400Y027400D03*
X005400Y027400D03*
X005400Y028400D03*
X005400Y029400D03*
X005400Y030400D03*
X005400Y026400D03*
X005400Y025400D03*
X005400Y024400D03*
X005400Y023400D03*
X004400Y024400D03*
X004400Y025400D03*
X004400Y026400D03*
X005400Y022400D03*
X001400Y024400D03*
X001400Y025400D03*
X001400Y026400D03*
X001400Y027400D03*
X001400Y028400D03*
X001400Y029400D03*
X001400Y030400D03*
X001400Y035400D03*
X001400Y036400D03*
X001400Y037400D03*
X001400Y038400D03*
X001400Y039400D03*
X001400Y040400D03*
X001400Y041400D03*
X001400Y045400D03*
X001400Y046400D03*
X001400Y047400D03*
X001400Y048400D03*
X001400Y049400D03*
X001400Y050400D03*
X001400Y051400D03*
X001400Y055900D03*
X001400Y056900D03*
X001400Y057900D03*
X001400Y058900D03*
X001400Y059900D03*
X001400Y060900D03*
X001400Y061900D03*
X005400Y060900D03*
X005400Y050400D03*
X013900Y061775D03*
X014900Y061775D03*
X015650Y061775D03*
X016650Y061775D03*
X019150Y062025D03*
X019150Y063025D03*
X020150Y063025D03*
X020150Y062025D03*
X021150Y062025D03*
X021150Y063025D03*
X022150Y063025D03*
X022150Y062025D03*
X023150Y062025D03*
X023150Y063025D03*
X024150Y063025D03*
X024150Y062025D03*
X025150Y062025D03*
X025150Y063025D03*
X026150Y063025D03*
X026150Y062025D03*
X027150Y062025D03*
X027150Y063025D03*
X028150Y063025D03*
X028150Y062025D03*
X029150Y062025D03*
X029150Y063025D03*
X030150Y063025D03*
X030150Y062025D03*
X031150Y062025D03*
X031150Y063025D03*
X032150Y063025D03*
X032150Y062025D03*
X033150Y062025D03*
X033150Y063025D03*
X034150Y063025D03*
X034150Y062025D03*
X035150Y062025D03*
X035150Y063025D03*
X036150Y063025D03*
X036150Y062025D03*
X037150Y062025D03*
X037150Y063025D03*
X038150Y063025D03*
X038150Y062025D03*
X039150Y062025D03*
X039150Y063025D03*
X040150Y063025D03*
X040150Y062025D03*
X041150Y062025D03*
X041150Y063025D03*
X042150Y063025D03*
X042150Y062025D03*
X043150Y062025D03*
X043150Y063025D03*
X044150Y063025D03*
X044150Y062025D03*
X045150Y062025D03*
X045150Y063025D03*
X046150Y063025D03*
X046150Y062025D03*
X046525Y064650D03*
X048150Y064650D03*
X048150Y065650D03*
X048150Y068150D03*
X048150Y069150D03*
X046525Y068150D03*
X045025Y069400D03*
X044525Y070150D03*
X044025Y069400D03*
X042650Y069400D03*
X042150Y070150D03*
X041650Y069400D03*
X040650Y069650D03*
X039150Y069150D03*
X039150Y070150D03*
X038150Y070150D03*
X038150Y069150D03*
X037150Y069150D03*
X037150Y070150D03*
X037150Y071150D03*
X036150Y071150D03*
X036150Y070150D03*
X036150Y069150D03*
X035150Y069150D03*
X035150Y070150D03*
X035150Y071150D03*
X034150Y071150D03*
X034150Y070150D03*
X034150Y069150D03*
X033150Y069150D03*
X033150Y070150D03*
X033150Y071150D03*
X032150Y071150D03*
X032150Y070150D03*
X032150Y069150D03*
X031150Y069150D03*
X031150Y070150D03*
X031150Y071150D03*
X030150Y070150D03*
X030150Y069150D03*
X029150Y070150D03*
X028150Y069150D03*
X028025Y070650D03*
X027150Y069150D03*
X026150Y069150D03*
X025150Y069150D03*
X024150Y069150D03*
X023150Y069150D03*
X022150Y069150D03*
X021150Y069150D03*
X020150Y069150D03*
X019150Y069150D03*
X021150Y066150D03*
X022150Y066150D03*
X023150Y066150D03*
X024150Y066150D03*
X025150Y066150D03*
X026150Y066150D03*
X027150Y066150D03*
X028150Y066150D03*
X027650Y064275D03*
X026650Y064275D03*
X025150Y064275D03*
X021150Y064275D03*
X020150Y064525D03*
X020150Y065525D03*
X016150Y057150D03*
X015150Y057150D03*
X016150Y056150D03*
X016150Y055150D03*
X016150Y054150D03*
X015150Y055150D03*
X017150Y054150D03*
X018150Y056150D03*
X016150Y049650D03*
X016150Y048650D03*
X016150Y047650D03*
X016150Y046650D03*
X015150Y047650D03*
X015150Y049650D03*
X017150Y046650D03*
X018150Y048650D03*
X016150Y042150D03*
X016150Y041150D03*
X016150Y040150D03*
X015150Y040150D03*
X016150Y039150D03*
X017150Y039150D03*
X018150Y041150D03*
X015150Y042150D03*
X015150Y034650D03*
X016150Y034650D03*
X016150Y033650D03*
X016150Y032650D03*
X016150Y031650D03*
X015150Y032650D03*
X017150Y031650D03*
X018150Y033650D03*
X016150Y027150D03*
X016150Y026150D03*
X016150Y025150D03*
X016150Y024150D03*
X015150Y025150D03*
X015150Y027150D03*
X017150Y024150D03*
X018150Y026150D03*
X016150Y019650D03*
X016150Y018650D03*
X015150Y019650D03*
X015150Y017650D03*
X016150Y017650D03*
X016150Y016650D03*
X017150Y016650D03*
X018150Y018650D03*
X016150Y012150D03*
X015150Y012150D03*
X016150Y011150D03*
X016150Y010150D03*
X016150Y009150D03*
X015150Y010150D03*
X017150Y009150D03*
X018150Y011150D03*
X017150Y004400D03*
X016150Y004400D03*
X015400Y004400D03*
X015150Y003275D03*
X014400Y004400D03*
X010275Y003400D03*
X010275Y001400D03*
X006150Y002650D03*
X006150Y003650D03*
X019150Y003275D03*
X020150Y003275D03*
X020150Y004275D03*
X021150Y004275D03*
X021150Y003275D03*
X022150Y003275D03*
X022150Y004275D03*
X023150Y004275D03*
X023150Y003275D03*
X024150Y003275D03*
X024150Y004275D03*
X025150Y004275D03*
X025150Y003275D03*
X026150Y003275D03*
X026150Y004275D03*
X027150Y004275D03*
X027150Y003275D03*
X028150Y003275D03*
X028150Y004275D03*
X029150Y004275D03*
X029150Y003275D03*
X030150Y003275D03*
X030150Y004275D03*
X031150Y004275D03*
X031150Y003275D03*
X032150Y003275D03*
X032150Y004275D03*
X033150Y004275D03*
X033150Y003275D03*
X034150Y003275D03*
X034150Y004275D03*
X035150Y004275D03*
X035150Y003275D03*
X036150Y003275D03*
X036150Y004275D03*
X037150Y004275D03*
X037150Y003275D03*
X038150Y003275D03*
X038150Y004275D03*
X039150Y004275D03*
X039150Y003275D03*
X040150Y003275D03*
X040150Y004275D03*
X041150Y004275D03*
X041150Y003275D03*
X042150Y003275D03*
X042150Y004275D03*
X043150Y004275D03*
X043150Y003275D03*
X044150Y003275D03*
X044150Y004275D03*
X045150Y004275D03*
X045150Y003275D03*
X046150Y003275D03*
X046150Y004275D03*
X047150Y004275D03*
X047150Y003275D03*
X030150Y002025D03*
X029150Y002025D03*
X021150Y002025D03*
X020150Y002025D03*
X042525Y064650D03*
X044025Y065900D03*
X044525Y066650D03*
X045025Y065900D03*
X042525Y068150D03*
X040650Y065650D03*
X039150Y066150D03*
X038150Y066150D03*
X037150Y066150D03*
X036150Y066150D03*
X035150Y066150D03*
X034150Y066150D03*
X033150Y066150D03*
X032150Y066150D03*
X031150Y066150D03*
X030150Y066150D03*
X031150Y074150D03*
X032150Y074150D03*
X033150Y074150D03*
X034150Y074150D03*
X035150Y074150D03*
X036150Y074150D03*
X037150Y074150D03*
X038150Y074150D03*
X039150Y076650D03*
X039150Y077650D03*
X040650Y078650D03*
X041650Y078650D03*
X042650Y078650D03*
X043650Y078650D03*
X045150Y078650D03*
X045150Y077650D03*
X045150Y076650D03*
X045150Y075650D03*
X043650Y075650D03*
X042650Y075650D03*
X041650Y075650D03*
X040650Y075650D03*
X042150Y072150D03*
X042150Y071150D03*
X046150Y071150D03*
X046150Y072150D03*
X038150Y071150D03*
X034150Y076150D03*
X034150Y077150D03*
X030150Y077150D03*
X030150Y076150D03*
X028025Y074650D03*
D12*
X029150Y073150D03*
X029150Y072150D03*
X036150Y076150D03*
X036150Y077150D03*
X036150Y078150D03*
X037150Y078150D03*
X037150Y077150D03*
X037150Y076150D03*
X040150Y064650D03*
X041150Y064650D03*
X041150Y060355D03*
X040150Y060355D03*
X039150Y060355D03*
X038150Y060355D03*
X037150Y060355D03*
X036150Y060355D03*
X035150Y060355D03*
X034150Y060355D03*
X033150Y060355D03*
X032150Y060355D03*
X031150Y060355D03*
X030150Y060355D03*
X029150Y060355D03*
X028150Y060355D03*
X027150Y060355D03*
X026150Y060355D03*
X025150Y060355D03*
X024150Y060355D03*
X023150Y060355D03*
X022150Y060355D03*
X021150Y060355D03*
X020150Y060355D03*
X019150Y060355D03*
X018150Y060355D03*
X017150Y060355D03*
X016150Y060355D03*
X015150Y060355D03*
X015150Y058445D03*
X016150Y058445D03*
X017150Y058445D03*
X018150Y058445D03*
X019150Y058445D03*
X020150Y058445D03*
X021150Y058445D03*
X022150Y058445D03*
X023150Y058445D03*
X024150Y058445D03*
X025150Y058445D03*
X026150Y058445D03*
X027150Y058445D03*
X028150Y058445D03*
X029150Y058445D03*
X030150Y058445D03*
X031150Y058445D03*
X032150Y058445D03*
X033150Y058445D03*
X034150Y058445D03*
X035150Y058445D03*
X036150Y058445D03*
X037150Y058445D03*
X038150Y058445D03*
X039150Y058445D03*
X040150Y058445D03*
X041150Y058445D03*
X042150Y058445D03*
X043150Y058445D03*
X044150Y058445D03*
X045150Y058445D03*
X045150Y060355D03*
X044150Y060355D03*
X043150Y060355D03*
X042150Y060355D03*
X042150Y052855D03*
X043150Y052855D03*
X044150Y052855D03*
X045150Y052855D03*
X045150Y050945D03*
X044150Y050945D03*
X043150Y050945D03*
X042150Y050945D03*
X041150Y050945D03*
X040150Y050945D03*
X039150Y050945D03*
X038150Y050945D03*
X037150Y050945D03*
X036150Y050945D03*
X035150Y050945D03*
X034150Y050945D03*
X033150Y050945D03*
X032150Y050945D03*
X031150Y050945D03*
X030150Y050945D03*
X029150Y050945D03*
X028150Y050945D03*
X027150Y050945D03*
X026150Y050945D03*
X025150Y050945D03*
X024150Y050945D03*
X023150Y050945D03*
X022150Y050945D03*
X021150Y050945D03*
X020150Y050945D03*
X019150Y050945D03*
X018150Y050945D03*
X017150Y050945D03*
X016150Y050945D03*
X015150Y050945D03*
X015150Y052855D03*
X016150Y052855D03*
X017150Y052855D03*
X018150Y052855D03*
X019150Y052855D03*
X020150Y052855D03*
X021150Y052855D03*
X022150Y052855D03*
X023150Y052855D03*
X024150Y052855D03*
X025150Y052855D03*
X026150Y052855D03*
X027150Y052855D03*
X028150Y052855D03*
X029150Y052855D03*
X030150Y052855D03*
X031150Y052855D03*
X032150Y052855D03*
X033150Y052855D03*
X034150Y052855D03*
X035150Y052855D03*
X036150Y052855D03*
X037150Y052855D03*
X038150Y052855D03*
X039150Y052855D03*
X040150Y052855D03*
X041150Y052855D03*
X041150Y045355D03*
X040150Y045355D03*
X039150Y045355D03*
X038150Y045355D03*
X037150Y045355D03*
X036150Y045355D03*
X035150Y045355D03*
X034150Y045355D03*
X033150Y045355D03*
X032150Y045355D03*
X031150Y045355D03*
X030150Y045355D03*
X029150Y045355D03*
X028150Y045355D03*
X027150Y045355D03*
X026150Y045355D03*
X025150Y045355D03*
X024150Y045355D03*
X023150Y045355D03*
X022150Y045355D03*
X021150Y045355D03*
X020150Y045355D03*
X019150Y045355D03*
X018150Y045355D03*
X017150Y045355D03*
X016150Y045355D03*
X015150Y045355D03*
X015150Y043445D03*
X016150Y043445D03*
X017150Y043445D03*
X018150Y043445D03*
X019150Y043445D03*
X020150Y043445D03*
X021150Y043445D03*
X022150Y043445D03*
X023150Y043445D03*
X024150Y043445D03*
X025150Y043445D03*
X026150Y043445D03*
X027150Y043445D03*
X028150Y043445D03*
X029150Y043445D03*
X030150Y043445D03*
X031150Y043445D03*
X032150Y043445D03*
X033150Y043445D03*
X034150Y043445D03*
X035150Y043445D03*
X036150Y043445D03*
X037150Y043445D03*
X038150Y043445D03*
X039150Y043445D03*
X040150Y043445D03*
X041150Y043445D03*
X042150Y043445D03*
X043150Y043445D03*
X044150Y043445D03*
X045150Y043445D03*
X045150Y045355D03*
X044150Y045355D03*
X043150Y045355D03*
X042150Y045355D03*
X042150Y037855D03*
X043150Y037855D03*
X044150Y037855D03*
X045150Y037855D03*
X045150Y035945D03*
X044150Y035945D03*
X043150Y035945D03*
X042150Y035945D03*
X041150Y035945D03*
X040150Y035945D03*
X039150Y035945D03*
X038150Y035945D03*
X037150Y035945D03*
X036150Y035945D03*
X035150Y035945D03*
X034150Y035945D03*
X033150Y035945D03*
X032150Y035945D03*
X031150Y035945D03*
X030150Y035945D03*
X029150Y035945D03*
X028150Y035945D03*
X027150Y035945D03*
X026150Y035945D03*
X025150Y035945D03*
X024150Y035945D03*
X023150Y035945D03*
X022150Y035945D03*
X021150Y035945D03*
X020150Y035945D03*
X019150Y035945D03*
X018150Y035945D03*
X017150Y035945D03*
X016150Y035945D03*
X015150Y035945D03*
X015150Y037855D03*
X016150Y037855D03*
X017150Y037855D03*
X018150Y037855D03*
X019150Y037855D03*
X020150Y037855D03*
X021150Y037855D03*
X022150Y037855D03*
X023150Y037855D03*
X024150Y037855D03*
X025150Y037855D03*
X026150Y037855D03*
X027150Y037855D03*
X028150Y037855D03*
X029150Y037855D03*
X030150Y037855D03*
X031150Y037855D03*
X032150Y037855D03*
X033150Y037855D03*
X034150Y037855D03*
X035150Y037855D03*
X036150Y037855D03*
X037150Y037855D03*
X038150Y037855D03*
X039150Y037855D03*
X040150Y037855D03*
X041150Y037855D03*
X041150Y030355D03*
X040150Y030355D03*
X039150Y030355D03*
X038150Y030355D03*
X037150Y030355D03*
X036150Y030355D03*
X035150Y030355D03*
X034150Y030355D03*
X033150Y030355D03*
X032150Y030355D03*
X031150Y030355D03*
X030150Y030355D03*
X029150Y030355D03*
X028150Y030355D03*
X027150Y030355D03*
X026150Y030355D03*
X025150Y030355D03*
X024150Y030355D03*
X023150Y030355D03*
X022150Y030355D03*
X021150Y030355D03*
X020150Y030355D03*
X019150Y030355D03*
X018150Y030355D03*
X017150Y030355D03*
X016150Y030355D03*
X015150Y030355D03*
X015150Y028445D03*
X016150Y028445D03*
X017150Y028445D03*
X018150Y028445D03*
X019150Y028445D03*
X020150Y028445D03*
X021150Y028445D03*
X022150Y028445D03*
X023150Y028445D03*
X024150Y028445D03*
X025150Y028445D03*
X026150Y028445D03*
X027150Y028445D03*
X028150Y028445D03*
X029150Y028445D03*
X030150Y028445D03*
X031150Y028445D03*
X032150Y028445D03*
X033150Y028445D03*
X034150Y028445D03*
X035150Y028445D03*
X036150Y028445D03*
X037150Y028445D03*
X038150Y028445D03*
X039150Y028445D03*
X040150Y028445D03*
X041150Y028445D03*
X042150Y028445D03*
X043150Y028445D03*
X044150Y028445D03*
X045150Y028445D03*
X045150Y030355D03*
X044150Y030355D03*
X043150Y030355D03*
X042150Y030355D03*
X042150Y022855D03*
X043150Y022855D03*
X044150Y022855D03*
X045150Y022855D03*
X045150Y020945D03*
X044150Y020945D03*
X043150Y020945D03*
X042150Y020945D03*
X041150Y020945D03*
X040150Y020945D03*
X039150Y020945D03*
X038150Y020945D03*
X037150Y020945D03*
X036150Y020945D03*
X035150Y020945D03*
X034150Y020945D03*
X033150Y020945D03*
X032150Y020945D03*
X031150Y020945D03*
X030150Y020945D03*
X029150Y020945D03*
X028150Y020945D03*
X027150Y020945D03*
X026150Y020945D03*
X025150Y020945D03*
X024150Y020945D03*
X023150Y020945D03*
X022150Y020945D03*
X021150Y020945D03*
X020150Y020945D03*
X019150Y020945D03*
X018150Y020945D03*
X017150Y020945D03*
X016150Y020945D03*
X015150Y020945D03*
X015150Y022855D03*
X016150Y022855D03*
X017150Y022855D03*
X018150Y022855D03*
X019150Y022855D03*
X020150Y022855D03*
X021150Y022855D03*
X022150Y022855D03*
X023150Y022855D03*
X024150Y022855D03*
X025150Y022855D03*
X026150Y022855D03*
X027150Y022855D03*
X028150Y022855D03*
X029150Y022855D03*
X030150Y022855D03*
X031150Y022855D03*
X032150Y022855D03*
X033150Y022855D03*
X034150Y022855D03*
X035150Y022855D03*
X036150Y022855D03*
X037150Y022855D03*
X038150Y022855D03*
X039150Y022855D03*
X040150Y022855D03*
X041150Y022855D03*
X041150Y015355D03*
X040150Y015355D03*
X039150Y015355D03*
X038150Y015355D03*
X037150Y015355D03*
X036150Y015355D03*
X035150Y015355D03*
X034150Y015355D03*
X033150Y015355D03*
X032150Y015355D03*
X031150Y015355D03*
X030150Y015355D03*
X029150Y015355D03*
X028150Y015355D03*
X027150Y015355D03*
X026150Y015355D03*
X025150Y015355D03*
X024150Y015355D03*
X023150Y015355D03*
X022150Y015355D03*
X021150Y015355D03*
X020150Y015355D03*
X019150Y015355D03*
X018150Y015355D03*
X017150Y015355D03*
X016150Y015355D03*
X015150Y015355D03*
X015150Y013445D03*
X016150Y013445D03*
X017150Y013445D03*
X018150Y013445D03*
X019150Y013445D03*
X020150Y013445D03*
X021150Y013445D03*
X022150Y013445D03*
X023150Y013445D03*
X024150Y013445D03*
X025150Y013445D03*
X026150Y013445D03*
X027150Y013445D03*
X028150Y013445D03*
X029150Y013445D03*
X030150Y013445D03*
X031150Y013445D03*
X032150Y013445D03*
X033150Y013445D03*
X034150Y013445D03*
X035150Y013445D03*
X036150Y013445D03*
X037150Y013445D03*
X038150Y013445D03*
X039150Y013445D03*
X040150Y013445D03*
X041150Y013445D03*
X042150Y013445D03*
X043150Y013445D03*
X044150Y013445D03*
X045150Y013445D03*
X045150Y015355D03*
X044150Y015355D03*
X043150Y015355D03*
X042150Y015355D03*
X042150Y007855D03*
X043150Y007855D03*
X044150Y007855D03*
X045150Y007855D03*
X045150Y005945D03*
X044150Y005945D03*
X043150Y005945D03*
X042150Y005945D03*
X041150Y005945D03*
X040150Y005945D03*
X039150Y005945D03*
X038150Y005945D03*
X037150Y005945D03*
X036150Y005945D03*
X035150Y005945D03*
X034150Y005945D03*
X033150Y005945D03*
X032150Y005945D03*
X031150Y005945D03*
X030150Y005945D03*
X029150Y005945D03*
X028150Y005945D03*
X027150Y005945D03*
X026150Y005945D03*
X025150Y005945D03*
X024150Y005945D03*
X023150Y005945D03*
X022150Y005945D03*
X021150Y005945D03*
X020150Y005945D03*
X019150Y005945D03*
X018150Y005945D03*
X017150Y005945D03*
X016150Y005945D03*
X015150Y005945D03*
X015150Y007855D03*
X016150Y007855D03*
X017150Y007855D03*
X018150Y007855D03*
X019150Y007855D03*
X020150Y007855D03*
X021150Y007855D03*
X022150Y007855D03*
X023150Y007855D03*
X024150Y007855D03*
X025150Y007855D03*
X026150Y007855D03*
X027150Y007855D03*
X028150Y007855D03*
X029150Y007855D03*
X030150Y007855D03*
X031150Y007855D03*
X032150Y007855D03*
X033150Y007855D03*
X034150Y007855D03*
X035150Y007855D03*
X036150Y007855D03*
X037150Y007855D03*
X038150Y007855D03*
X039150Y007855D03*
X040150Y007855D03*
X041150Y007855D03*
X018150Y002275D03*
X017150Y002275D03*
X016150Y002275D03*
X006150Y010150D03*
X006150Y011150D03*
X019150Y064150D03*
X019150Y065150D03*
X019150Y066150D03*
X047150Y071650D03*
X048150Y071650D03*
D13*
X041150Y073650D03*
X040150Y073650D03*
X008150Y002650D03*
X008150Y001650D03*
D14*
X009150Y071650D03*
X009150Y073650D03*
X004150Y073650D03*
X004150Y071650D03*
X019900Y071650D03*
X019900Y073650D03*
X024900Y073650D03*
X024900Y071650D03*
X027275Y076150D03*
X027275Y078150D03*
D15*
X002150Y002150D03*
X003150Y002150D03*
X004150Y002150D03*
D16*
X003150Y008050D03*
D17*
X006150Y007650D03*
X006150Y004650D03*
D18*
X044150Y073900D03*
X045150Y073900D03*
X046150Y073900D03*
X048150Y073900D03*
D19*
X030650Y065275D03*
X030150Y065025D03*
X029650Y064775D03*
X029150Y064525D03*
X028650Y064275D03*
X018400Y069150D03*
X008650Y059900D03*
X008275Y058900D03*
X005400Y059525D03*
X005025Y064525D03*
X005650Y065650D03*
X006025Y066025D03*
X006400Y066400D03*
X006775Y066775D03*
X007150Y067150D03*
X008025Y066775D03*
X008400Y066400D03*
X008025Y066025D03*
X008400Y065650D03*
X008025Y065275D03*
X008400Y064900D03*
X008400Y067150D03*
X003150Y065275D03*
X002775Y064900D03*
X008275Y052275D03*
X007775Y051275D03*
X008025Y044775D03*
X007150Y044025D03*
X007775Y040400D03*
X007775Y037775D03*
X006775Y037025D03*
X007525Y036400D03*
X006900Y035400D03*
X007525Y034400D03*
X007525Y033400D03*
X007025Y030775D03*
X008650Y029400D03*
X008650Y028400D03*
X008650Y027400D03*
X008650Y026400D03*
X008275Y022275D03*
X007025Y021900D03*
X006025Y021525D03*
X007900Y014400D03*
X005525Y014025D03*
X008275Y007275D03*
X008650Y006900D03*
X013400Y025400D03*
X013025Y039400D03*
X013025Y051900D03*
X002400Y035900D03*
D20*
X012150Y033150D03*
X012150Y010650D03*
X012150Y055650D03*
X002150Y078150D03*
X048150Y078150D03*
X048150Y055650D03*
X048150Y033150D03*
X048150Y010650D03*
M02*
