G75*
G70*
%OFA0B0*%
%FSLAX24Y24*%
%IPPOS*%
%LPD*%
%AMOC8*
5,1,8,0,0,1.08239X$1,22.5*
%
%ADD10C,0.0000*%
D10*
X000150Y000150D02*
X000150Y080150D01*
X050150Y080150D01*
X050150Y000150D01*
X000150Y000150D01*
X002461Y008050D02*
X002463Y008102D01*
X002469Y008154D01*
X002479Y008205D01*
X002492Y008255D01*
X002510Y008305D01*
X002531Y008352D01*
X002555Y008398D01*
X002584Y008442D01*
X002615Y008484D01*
X002649Y008523D01*
X002686Y008560D01*
X002726Y008593D01*
X002769Y008624D01*
X002813Y008651D01*
X002859Y008675D01*
X002908Y008695D01*
X002957Y008711D01*
X003008Y008724D01*
X003059Y008733D01*
X003111Y008738D01*
X003163Y008739D01*
X003215Y008736D01*
X003267Y008729D01*
X003318Y008718D01*
X003368Y008704D01*
X003417Y008685D01*
X003464Y008663D01*
X003509Y008638D01*
X003553Y008609D01*
X003594Y008577D01*
X003633Y008542D01*
X003668Y008504D01*
X003701Y008463D01*
X003731Y008421D01*
X003757Y008376D01*
X003780Y008329D01*
X003799Y008280D01*
X003815Y008230D01*
X003827Y008180D01*
X003835Y008128D01*
X003839Y008076D01*
X003839Y008024D01*
X003835Y007972D01*
X003827Y007920D01*
X003815Y007870D01*
X003799Y007820D01*
X003780Y007771D01*
X003757Y007724D01*
X003731Y007679D01*
X003701Y007637D01*
X003668Y007596D01*
X003633Y007558D01*
X003594Y007523D01*
X003553Y007491D01*
X003509Y007462D01*
X003464Y007437D01*
X003417Y007415D01*
X003368Y007396D01*
X003318Y007382D01*
X003267Y007371D01*
X003215Y007364D01*
X003163Y007361D01*
X003111Y007362D01*
X003059Y007367D01*
X003008Y007376D01*
X002957Y007389D01*
X002908Y007405D01*
X002859Y007425D01*
X002813Y007449D01*
X002769Y007476D01*
X002726Y007507D01*
X002686Y007540D01*
X002649Y007577D01*
X002615Y007616D01*
X002584Y007658D01*
X002555Y007702D01*
X002531Y007748D01*
X002510Y007795D01*
X002492Y007845D01*
X002479Y007895D01*
X002469Y007946D01*
X002463Y007998D01*
X002461Y008050D01*
M02*
